<svg xmlns="http://www.w3.org/2000/svg" enable-background="new 0 0 24 24" viewBox="0 0 24 24" id="sourcetree">
  <path fill="#2580F8" d="M21.499,9.516H21.5C21.5,4.261,17.248,0,12.004,0C6.761-0.009,2.509,4.247,2.5,9.497c-0.005,4.134,2.648,7.795,6.572,9.066v4.767C9.072,23.7,9.371,24,9.74,24h4.51c0.369,0,0.669-0.3,0.669-0.67v-4.762C18.832,17.302,21.495,13.647,21.499,9.516L21.499,9.516z M8.795,9.516c0-4.256,6.423-4.256,6.423,0C15.212,13.73,8.795,13.782,8.795,9.516L8.795,9.516z"></path>
  <path fill="#DEDEDE" d="M12,6.324c-1.604,0.003-3.205,1.067-3.205,3.192c0,2.127,1.594,3.181,3.194,3.181c0.004,0,0.007,0,0.01,0V6.324L12,6.324z"></path>
  <path fill="#206FD8" d="M12,0h-0.016C6.749,0.002,2.509,4.254,2.5,9.497c-0.005,4.134,2.648,7.795,6.572,9.066v4.767C9.072,23.7,9.371,24,9.74,24H12V12.696c-0.004,0-0.007,0-0.01,0c-1.6,0-3.194-1.054-3.194-3.181c0-2.125,1.601-3.189,3.205-3.192V0L12,0z"></path>
</svg>
